<svg width="400" height="500" viewBox="0 0 400 500" fill="none" xmlns="http://www.w3.org/2000/svg">
  <rect width="400" height="500" rx="10" fill="#F5F5F5"/>
  <rect x="20" y="20" width="360" height="460" rx="5" fill="#FFFFFF" stroke="#6A35FF" stroke-width="2"/>
  <rect x="50" y="60" width="300" height="200" rx="5" fill="#6A35FF" opacity="0.1"/>
  <path d="M175 160C175 154.477 179.477 150 185 150H215C220.523 150 225 154.477 225 160V160C225 165.523 220.523 170 215 170H185C179.477 170 175 165.523 175 160V160Z" fill="#6A35FF"/>
  <rect x="50" y="290" width="300" height="20" rx="5" fill="#6A35FF" opacity="0.2"/>
  <rect x="50" y="330" width="300" height="20" rx="5" fill="#6A35FF" opacity="0.2"/>
  <rect x="50" y="370" width="300" height="20" rx="5" fill="#6A35FF" opacity="0.2"/>
  <rect x="50" y="410" width="200" height="20" rx="5" fill="#FF7A00" opacity="0.3"/>
  <text x="200" y="120" font-family="Arial" font-size="24" font-weight="bold" fill="#6A35FF" text-anchor="middle">BIBLIOTECA DE EBOOKS</text>
  <text x="200" y="250" font-family="Arial" font-size="16" fill="#333333" text-anchor="middle">Seu E-book Aqui</text>
</svg>
